<svg width="237" height="40" viewBox="0 0 237 40" fill="none" xmlns="http://www.w3.org/2000/svg">
<path d="M21.804 0.0116334C21.3791 -0.025428 20.951 0.0262919 20.5471 0.163508C20.1431 0.300725 19.7722 0.520439 19.4577 0.808699C19.1432 1.09696 18.8921 1.44746 18.7203 1.83796C18.5485 2.22845 18.4598 2.6504 18.4599 3.077V10.8981C18.4545 11.6239 18.7082 12.3277 19.1752 12.8832C19.6422 13.4387 20.2921 13.8095 21.0079 13.9289C22.1517 14.1208 23.2179 14.632 24.0838 15.4035C24.9496 16.1751 25.5798 17.1757 25.9017 18.2899C26.2236 19.404 26.2241 20.5865 25.9031 21.701C25.5822 22.8154 24.9528 23.8165 24.0876 24.5888C23.2224 25.3611 22.1566 25.8732 21.013 26.066C19.8694 26.2589 18.6946 26.1246 17.6239 25.6788C16.5533 25.2329 15.6305 24.4936 14.9618 23.546C14.2931 22.5985 13.9058 21.4812 13.8445 20.3231C13.7657 18.7423 14.0887 17.4385 14.806 16.4269C15.2276 15.8389 15.4264 15.1201 15.3669 14.399C15.3073 13.6779 14.9934 13.0014 14.4811 12.4904L9.16957 7.05391C8.86681 6.75114 8.5042 6.51489 8.10491 6.36027C7.70563 6.20565 7.27847 6.13608 6.85076 6.15599C6.42305 6.1759 6.0042 6.28486 5.62101 6.4759C5.23781 6.66694 4.89871 6.93586 4.62539 7.26545C1.41961 11.1077 -0.222916 16.0156 0.0243586 21.0135C0.271633 26.0114 2.3906 30.7333 5.95999 34.2403C9.69225 37.9432 14.7408 40.0146 19.9983 39.9999H20.2848C25.4858 39.9114 30.449 37.8058 34.1269 34.1274C37.8049 30.449 39.9101 25.4856 39.9981 20.2846C40.1423 9.84236 32.1501 0.938552 21.804 0.0116334ZM6.98306 9.21929L12.2926 14.6404V14.652C11.5045 15.783 11.0095 17.092 10.8522 18.4616H3.14464C3.45274 15.0617 4.79196 11.8371 6.98306 9.21929ZM3.14656 21.5385H10.8965C11.2155 23.4287 12.1152 25.1728 13.4705 26.5285C14.8259 27.8842 16.5697 28.7843 18.4599 29.1038V36.8538C14.5196 36.4938 10.83 34.7646 8.03242 31.9666C5.23481 29.1686 3.50603 25.4788 3.14656 21.5385ZM31.9482 31.95C29.1615 34.756 25.4752 36.4903 21.5367 36.848V29.1038C23.3196 28.8071 24.9745 27.9886 26.2925 26.7519C27.5525 25.578 28.4589 24.075 28.9094 22.4129C29.3599 20.7507 29.3365 18.9957 28.8417 17.3462C28.347 15.6967 27.4007 14.2185 26.1097 13.0787C24.8188 11.9388 23.2348 11.1829 21.5367 10.8962V3.077C30.2905 3.86162 37.05 11.4 36.9212 20.2404C36.8607 24.6442 35.0752 28.8485 31.9482 31.95Z" fill="#57B32C"/>
<path d="M55.24 34V6.56H74.84V10.4H59.72V18.52H73.4V22.32H59.72V34H55.24ZM79.1331 9.32V5.08H83.2931V9.32H79.1331ZM79.1331 34V12.96H83.2931V34H79.1331ZM88.6644 34V12.96H92.1044L92.4644 15.96H92.7444C93.251 15.1867 93.851 14.5467 94.5444 14.04C95.2377 13.5333 95.9977 13.1467 96.8244 12.88C97.6777 12.6133 98.611 12.48 99.6244 12.48C100.958 12.48 102.131 12.72 103.144 13.2C104.158 13.6533 104.944 14.4 105.504 15.44C106.091 16.48 106.384 17.88 106.384 19.64V34H102.224V20.28C102.224 19.48 102.118 18.8133 101.904 18.28C101.718 17.7467 101.438 17.32 101.064 17C100.691 16.68 100.251 16.4533 99.7444 16.32C99.2377 16.1867 98.6777 16.12 98.0644 16.12C97.1044 16.12 96.2244 16.36 95.4244 16.84C94.651 17.2933 94.0244 17.9333 93.5444 18.76C93.0644 19.5867 92.8244 20.56 92.8244 21.68V34H88.6644ZM116.914 34.48C116.247 34.48 115.527 34.4 114.754 34.24C113.981 34.08 113.247 33.7867 112.554 33.36C111.887 32.9333 111.341 32.3467 110.914 31.6C110.487 30.8267 110.274 29.8267 110.274 28.6C110.274 27.16 110.607 25.9733 111.274 25.04C111.941 24.1067 112.874 23.3733 114.074 22.84C115.274 22.3067 116.701 21.9333 118.354 21.72C120.034 21.5067 121.861 21.4 123.834 21.4V19.32C123.834 18.6267 123.714 18.0133 123.474 17.48C123.261 16.9467 122.847 16.5333 122.234 16.24C121.647 15.9467 120.794 15.8 119.674 15.8C118.554 15.8 117.674 15.9467 117.034 16.24C116.421 16.5067 115.981 16.8533 115.714 17.28C115.474 17.68 115.354 18.12 115.354 18.6V19.2H111.354C111.327 19.0667 111.314 18.9333 111.314 18.8C111.314 18.6667 111.314 18.5067 111.314 18.32C111.314 17.0667 111.661 16.0133 112.354 15.16C113.074 14.28 114.074 13.6133 115.354 13.16C116.634 12.7067 118.114 12.48 119.794 12.48C121.607 12.48 123.114 12.7467 124.314 13.28C125.541 13.7867 126.461 14.52 127.074 15.48C127.687 16.44 127.994 17.6 127.994 18.96V29.64C127.994 30.1467 128.114 30.5067 128.354 30.72C128.621 30.9333 128.927 31.04 129.274 31.04H130.714V33.84C130.394 33.9733 129.994 34.1067 129.514 34.24C129.034 34.3733 128.474 34.44 127.834 34.44C127.114 34.44 126.501 34.3067 125.994 34.04C125.514 33.8 125.114 33.4533 124.794 33C124.501 32.52 124.301 31.9867 124.194 31.4H123.954C123.474 32.0133 122.887 32.56 122.194 33.04C121.527 33.4933 120.754 33.84 119.874 34.08C118.994 34.3467 118.007 34.48 116.914 34.48ZM118.074 31.04C118.901 31.04 119.661 30.92 120.354 30.68C121.074 30.4133 121.687 30.0533 122.194 29.6C122.701 29.12 123.101 28.56 123.394 27.92C123.687 27.2533 123.834 26.5333 123.834 25.76V24.36C121.994 24.36 120.381 24.4667 118.994 24.68C117.607 24.8933 116.527 25.2933 115.754 25.88C114.981 26.44 114.594 27.2267 114.594 28.24C114.594 28.8533 114.727 29.3733 114.994 29.8C115.261 30.2 115.661 30.5067 116.194 30.72C116.727 30.9333 117.354 31.04 118.074 31.04ZM133.586 34V12.96H137.026L137.386 15.96H137.666C138.173 15.1867 138.773 14.5467 139.466 14.04C140.16 13.5333 140.92 13.1467 141.746 12.88C142.6 12.6133 143.533 12.48 144.546 12.48C145.88 12.48 147.053 12.72 148.066 13.2C149.08 13.6533 149.866 14.4 150.426 15.44C151.013 16.48 151.306 17.88 151.306 19.64V34H147.146V20.28C147.146 19.48 147.04 18.8133 146.826 18.28C146.64 17.7467 146.36 17.32 145.986 17C145.613 16.68 145.173 16.4533 144.666 16.32C144.16 16.1867 143.6 16.12 142.986 16.12C142.026 16.12 141.146 16.36 140.346 16.84C139.573 17.2933 138.946 17.9333 138.466 18.76C137.986 19.5867 137.746 20.56 137.746 21.68V34H133.586Z" fill="#57B32C"/>
<path d="M167.236 34.48C165.743 34.48 164.303 34.32 162.916 34C161.529 33.7067 160.303 33.2267 159.236 32.56C158.169 31.8667 157.329 31 156.716 29.96C156.103 28.8933 155.796 27.6267 155.796 26.16C155.796 26 155.796 25.8533 155.796 25.72C155.823 25.56 155.836 25.4267 155.836 25.32H160.316C160.316 25.4 160.303 25.52 160.276 25.68C160.276 25.84 160.276 25.9733 160.276 26.08C160.276 27.0667 160.569 27.9067 161.156 28.6C161.743 29.2933 162.556 29.8133 163.596 30.16C164.663 30.5067 165.876 30.68 167.236 30.68C167.983 30.68 168.703 30.64 169.396 30.56C170.089 30.4533 170.716 30.3067 171.276 30.12C171.863 29.9067 172.369 29.6533 172.796 29.36C173.223 29.04 173.556 28.6667 173.796 28.24C174.036 27.8133 174.156 27.32 174.156 26.76C174.156 25.9067 173.903 25.2 173.396 24.64C172.916 24.08 172.249 23.6133 171.396 23.24C170.569 22.8667 169.623 22.5333 168.556 22.24C167.516 21.9467 166.436 21.6533 165.316 21.36C164.196 21.0667 163.103 20.72 162.036 20.32C160.996 19.92 160.049 19.44 159.196 18.88C158.369 18.2933 157.703 17.5733 157.196 16.72C156.716 15.84 156.476 14.7733 156.476 13.52C156.476 12.32 156.729 11.2533 157.236 10.32C157.743 9.38667 158.476 8.61333 159.436 8C160.396 7.36 161.543 6.88 162.876 6.56C164.209 6.24 165.716 6.08 167.396 6.08C168.836 6.08 170.196 6.24 171.476 6.56C172.756 6.85333 173.876 7.32 174.836 7.96C175.796 8.6 176.543 9.41333 177.076 10.4C177.636 11.3867 177.916 12.56 177.916 13.92V14.4H173.476V13.88C173.476 13.0267 173.223 12.3067 172.716 11.72C172.209 11.1333 171.503 10.68 170.596 10.36C169.689 10.04 168.636 9.88 167.436 9.88C166.023 9.88 164.836 10.0267 163.876 10.32C162.916 10.5867 162.183 10.9733 161.676 11.48C161.196 11.96 160.956 12.5467 160.956 13.24C160.956 14.0133 161.209 14.6533 161.716 15.16C162.223 15.64 162.889 16.0533 163.716 16.4C164.569 16.7467 165.516 17.0667 166.556 17.36C167.623 17.6267 168.703 17.92 169.796 18.24C170.916 18.5333 171.996 18.88 173.036 19.28C174.103 19.68 175.049 20.1733 175.876 20.76C176.729 21.3467 177.409 22.08 177.916 22.96C178.423 23.8133 178.676 24.8667 178.676 26.12C178.676 28.0933 178.183 29.7067 177.196 30.96C176.209 32.1867 174.849 33.08 173.116 33.64C171.409 34.2 169.449 34.48 167.236 34.48ZM188.633 34.48C187.966 34.48 187.246 34.4 186.473 34.24C185.699 34.08 184.966 33.7867 184.273 33.36C183.606 32.9333 183.059 32.3467 182.633 31.6C182.206 30.8267 181.993 29.8267 181.993 28.6C181.993 27.16 182.326 25.9733 182.993 25.04C183.659 24.1067 184.593 23.3733 185.793 22.84C186.993 22.3067 188.419 21.9333 190.073 21.72C191.753 21.5067 193.579 21.4 195.553 21.4V19.32C195.553 18.6267 195.433 18.0133 195.193 17.48C194.979 16.9467 194.566 16.5333 193.953 16.24C193.366 15.9467 192.513 15.8 191.393 15.8C190.273 15.8 189.393 15.9467 188.753 16.24C188.139 16.5067 187.699 16.8533 187.433 17.28C187.193 17.68 187.073 18.12 187.073 18.6V19.2H183.073C183.046 19.0667 183.033 18.9333 183.033 18.8C183.033 18.6667 183.033 18.5067 183.033 18.32C183.033 17.0667 183.379 16.0133 184.073 15.16C184.793 14.28 185.793 13.6133 187.073 13.16C188.353 12.7067 189.833 12.48 191.513 12.48C193.326 12.48 194.833 12.7467 196.033 13.28C197.259 13.7867 198.179 14.52 198.793 15.48C199.406 16.44 199.713 17.6 199.713 18.96V29.64C199.713 30.1467 199.833 30.5067 200.073 30.72C200.339 30.9333 200.646 31.04 200.993 31.04H202.433V33.84C202.113 33.9733 201.713 34.1067 201.233 34.24C200.753 34.3733 200.193 34.44 199.553 34.44C198.833 34.44 198.219 34.3067 197.713 34.04C197.233 33.8 196.833 33.4533 196.513 33C196.219 32.52 196.019 31.9867 195.913 31.4H195.673C195.193 32.0133 194.606 32.56 193.913 33.04C193.246 33.4933 192.473 33.84 191.593 34.08C190.713 34.3467 189.726 34.48 188.633 34.48ZM189.793 31.04C190.619 31.04 191.379 30.92 192.073 30.68C192.793 30.4133 193.406 30.0533 193.913 29.6C194.419 29.12 194.819 28.56 195.113 27.92C195.406 27.2533 195.553 26.5333 195.553 25.76V24.36C193.713 24.36 192.099 24.4667 190.713 24.68C189.326 24.8933 188.246 25.2933 187.473 25.88C186.699 26.44 186.313 27.2267 186.313 28.24C186.313 28.8533 186.446 29.3733 186.713 29.8C186.979 30.2 187.379 30.5067 187.913 30.72C188.446 30.9333 189.073 31.04 189.793 31.04ZM206.225 34V16.4H203.145V12.96H206.225V9.92C206.225 9.04 206.358 8.21333 206.625 7.44C206.918 6.66667 207.412 6.02667 208.105 5.52C208.825 5.01333 209.838 4.76 211.145 4.76C211.518 4.76 211.892 4.78667 212.265 4.84C212.665 4.86667 213.038 4.92 213.385 5C213.732 5.08 214.038 5.17333 214.305 5.28V8.2H212.265C211.625 8.2 211.145 8.36 210.825 8.68C210.532 9 210.385 9.46666 210.385 10.08V12.96H214.305V16.4H210.385V34H206.225ZM225.548 34.48C223.388 34.48 221.575 34.0933 220.108 33.32C218.668 32.52 217.575 31.3067 216.828 29.68C216.082 28.0533 215.708 25.9867 215.708 23.48C215.708 20.9467 216.082 18.88 216.828 17.28C217.575 15.6533 218.682 14.4533 220.148 13.68C221.615 12.88 223.442 12.48 225.628 12.48C227.628 12.48 229.295 12.8667 230.628 13.64C231.988 14.3867 233.015 15.5333 233.708 17.08C234.402 18.6267 234.748 20.5733 234.748 22.92V24.52H219.988C220.042 26.0133 220.268 27.2667 220.668 28.28C221.068 29.2667 221.668 30 222.468 30.48C223.295 30.9333 224.335 31.16 225.588 31.16C226.362 31.16 227.055 31.0667 227.668 30.88C228.282 30.6667 228.802 30.3733 229.228 30C229.655 29.6 229.988 29.1333 230.228 28.6C230.468 28.04 230.588 27.4133 230.588 26.72H234.668C234.668 27.9733 234.455 29.08 234.028 30.04C233.602 31 232.975 31.8133 232.148 32.48C231.348 33.12 230.388 33.6133 229.268 33.96C228.148 34.3067 226.908 34.48 225.548 34.48ZM220.068 21.48H230.388C230.388 20.44 230.268 19.5733 230.028 18.88C229.815 18.16 229.495 17.5733 229.068 17.12C228.642 16.6667 228.135 16.3467 227.548 16.16C226.962 15.9467 226.295 15.84 225.548 15.84C224.428 15.84 223.468 16.04 222.668 16.44C221.895 16.84 221.295 17.4667 220.868 18.32C220.442 19.1467 220.175 20.2 220.068 21.48Z" fill="white"/>
</svg>
